<?xml version="1.0" encoding="UTF-8"?>
<svg id="Layer_1" data-name="Layer 1" xmlns="http://www.w3.org/2000/svg" viewBox="0 0 1000 1000">
  <defs>
    <style>
      .cls-1 {
        fill: #fff;
      }
    </style>
  </defs>
  <path class="cls-1" d="M434.63,705.12l170.24-170.24,170.24,170.24,36.46-35.24-171.83-169.88,169.88-169.88-35.24-35.24-169.51,170.24-170.24-170.24-35.24,35.24,170.61,169.88-170.61,169.88s35.24,35.24,35.24,35.24ZM0,500L224.02,183.29c13.74-19.84,30.68-35.43,50.83-46.77,20.15-11.34,42.38-17.01,66.69-17.01H912.19c23.72,0,44.28,8.7,61.69,26.11,17.41,17.41,26.11,37.97,26.11,61.69V792.68c0,23.72-8.7,44.28-26.11,61.69-17.41,17.41-37.97,26.11-61.69,26.11H341.46c-24.06,0-46.02-6.08-65.85-18.23-19.84-12.15-37.03-28.15-51.58-47.99L0,500Zm60.37,0l212.61,300c6.5,8.94,15.24,16.46,26.22,22.56,10.97,6.1,22.56,9.15,34.76,9.15H912.19c9.76,0,18.7-4.06,26.83-12.19,8.13-8.13,12.19-17.07,12.19-26.83V207.32c0-9.76-4.06-18.7-12.19-26.83-8.13-8.13-17.07-12.19-26.83-12.19H333.78c-12.2,0-23.78,3.05-34.76,9.15-10.98,6.1-19.72,13.62-26.22,22.56L60.37,500Zm890.85,0v0Z"/>
</svg>