<?xml version="1.0" encoding="UTF-8"?>
<svg id="Layer_1" data-name="Layer 1" xmlns="http://www.w3.org/2000/svg" viewBox="0 0 1000 1000">
  <defs>
    <style>
      .cls-1 {
        fill: #fff;
      }

      .cls-2 {
        fill: #db4437;
      }
    </style>
  </defs>
  <circle class="cls-2" cx="500" cy="500" r="500"/>
  <path class="cls-1" d="M287.5,700c-10,0-18.75-3.75-26.25-11.25s-11.25-16.25-11.25-26.25V337.5c0-10,3.75-18.75,11.25-26.25,7.5-7.5,16.25-11.25,26.25-11.25h425c10,0,18.75,3.75,26.25,11.25s11.25,16.25,11.25,26.25v325c0,10-3.75,18.75-11.25,26.25-7.5,7.5-16.25,11.25-26.25,11.25H287.5Zm212.5-188.75l-212.5-139.37v290.62h425V371.88s-212.5,139.37-212.5,139.37Zm0-37.5l210-136.25H290.62l209.37,136.25Zm-212.5-101.87h0Z"/>
</svg>