<?xml version="1.0" encoding="UTF-8"?>
<svg id="Layer_1" data-name="Layer 1" xmlns="http://www.w3.org/2000/svg" viewBox="0 0 1000 1000">
  <defs>
    <style>
      .cls-1 {
        fill: #fff;
      }
    </style>
  </defs>
  <path class="cls-1" d="M505.62,786.22c9.79,0,18.17-3.69,25.15-11.06,6.98-7.38,10.47-15.96,10.47-25.75,0-9.08-3.51-17.28-10.53-24.62-7.02-7.34-15.42-11-25.21-11s-18.35,3.69-25.69,11.07c-7.34,7.38-11,15.6-11,24.68,0,9.79,3.69,18.35,11.07,25.69,7.38,7.34,15.96,11,25.75,11Zm-28.37-179.27h44.55c.71-21.22,4.79-40.01,12.23-56.36,7.44-16.35,22.99-34.99,46.63-55.93,26.57-24.79,45.51-47.33,56.84-67.63,11.32-20.3,16.99-42.67,16.99-67.12,0-42.43-13.98-77.04-41.93-103.82-27.96-26.78-63.05-40.17-105.29-40.17-36.82,0-69.57,9.74-98.24,29.22-28.67,19.48-50.16,43.43-64.48,71.85l42.63,17.09c10.9-23.79,25.64-42.32,44.23-55.61,18.59-13.28,42.49-19.93,71.69-19.93,36.47,0,64.07,9.99,82.8,29.97,18.73,19.98,28.1,43.75,28.1,71.31,0,19.66-5.31,37.62-15.92,53.9-10.61,16.27-25.71,33.07-45.3,50.37-26.35,24.07-45.53,47.74-57.53,70.99-12,23.26-18,47.21-18,71.85Zm22.94,393.06c-68.93,0-133.65-13.12-194.16-39.36-60.51-26.24-113.51-62.08-159-107.53-45.49-45.45-81.36-98.4-107.63-158.85C13.13,633.8,0,569.11,0,500.19s13.12-134.15,39.36-195.01c26.24-60.87,62.08-113.81,107.53-158.84,45.45-45.02,98.4-80.67,158.85-106.93C366.2,13.13,430.89,0,499.81,0s134.15,13.12,195.01,39.36c60.87,26.24,113.81,61.85,158.84,106.84,45.03,44.98,80.67,97.88,106.93,158.69,26.26,60.81,39.4,125.79,39.4,194.93s-13.12,133.65-39.36,194.16c-26.24,60.51-61.85,113.51-106.84,159-44.98,45.49-97.88,81.36-158.69,107.63-60.81,26.26-125.79,39.4-194.93,39.4Zm-.19-42.73c127.21,0,235.22-44.46,324.04-133.39,88.82-88.92,133.23-196.88,133.23-323.88s-44.41-235.22-133.23-324.04c-88.82-88.82-196.83-133.23-324.04-133.23-126.99,0-234.95,44.41-323.88,133.23C87.2,264.78,42.73,372.79,42.73,500s44.46,234.95,133.39,323.88c88.92,88.93,196.88,133.39,323.88,133.39Z"/>
</svg>