<?xml version="1.0" encoding="UTF-8"?>
<svg id="Layer_1" data-name="Layer 1" xmlns="http://www.w3.org/2000/svg" xmlns:xlink="http://www.w3.org/1999/xlink" viewBox="0 0 1000 1000">
  <defs>
    <style>
      .cls-1 {
        fill: #fff;
      }

      .cls-2 {
        fill: url(#linear-gradient);
      }
    </style>
    <linearGradient id="linear-gradient" x1="853.55" y1="146.45" x2="146.45" y2="853.55" gradientUnits="userSpaceOnUse">
      <stop offset="0" stop-color="#405de6"/>
      <stop offset=".11" stop-color="#5b51d8"/>
      <stop offset=".22" stop-color="#833ab4"/>
      <stop offset=".33" stop-color="#c13584"/>
      <stop offset=".44" stop-color="#e1306c"/>
      <stop offset=".55" stop-color="#fd1d1d"/>
      <stop offset=".66" stop-color="#f56040"/>
      <stop offset=".77" stop-color="#f77737"/>
      <stop offset=".88" stop-color="#fcaf45"/>
      <stop offset=".99" stop-color="#ffdc80"/>
    </linearGradient>
  </defs>
  <circle class="cls-2" cx="500" cy="500" r="500"/>
  <path class="cls-1" d="M500.03,250c-67.9,0-76.42,.3-103.08,1.51-26.62,1.22-44.78,5.43-60.68,11.61-16.44,6.39-30.39,14.93-44.29,28.83-13.91,13.9-22.45,27.84-28.85,44.28-6.2,15.9-10.42,34.07-11.62,60.68-1.19,26.67-1.5,35.19-1.5,103.09s.3,76.39,1.51,103.06c1.22,26.62,5.44,44.78,11.61,60.68,6.39,16.44,14.93,30.39,28.84,44.29,13.89,13.91,27.84,22.47,44.27,28.85,15.91,6.18,34.08,10.4,60.69,11.61,26.67,1.21,35.18,1.51,103.07,1.51s76.4-.3,103.07-1.51c26.62-1.22,44.8-5.43,60.71-11.61,16.44-6.39,30.37-14.95,44.25-28.85,13.91-13.9,22.45-27.84,28.85-44.28,6.15-15.9,10.36-34.07,11.61-60.68,1.2-26.67,1.51-35.17,1.51-103.06s-.31-76.42-1.51-103.08c-1.25-26.62-5.47-44.78-11.61-60.68-6.4-16.44-14.95-30.39-28.85-44.29-13.91-13.91-27.81-22.45-44.27-28.83-15.94-6.18-34.12-10.4-60.73-11.61-26.67-1.22-35.16-1.51-103.07-1.51,0,0,.08,0,.08,0Zm-22.43,45.05c6.65-.01,14.08,0,22.43,0,66.75,0,74.66,.24,101.02,1.44,24.38,1.11,37.6,5.19,46.42,8.61,11.67,4.53,19.98,9.95,28.73,18.7,8.75,8.75,14.17,17.08,18.71,28.75,3.42,8.8,7.5,22.03,8.61,46.41,1.2,26.35,1.46,34.27,1.46,100.99s-.26,74.63-1.46,100.99c-1.11,24.38-5.19,37.6-8.61,46.41-4.53,11.67-9.96,19.98-18.71,28.72-8.75,8.75-17.06,14.17-28.73,18.7-8.8,3.44-22.04,7.5-46.42,8.61-26.35,1.2-34.27,1.46-101.02,1.46s-74.67-.26-101.02-1.46c-24.38-1.12-37.6-5.2-46.42-8.62-11.67-4.53-20-9.95-28.75-18.7-8.75-8.75-14.17-17.06-18.71-28.73-3.42-8.8-7.5-22.03-8.61-46.41-1.2-26.35-1.44-34.27-1.44-101.03s.24-74.63,1.44-100.99c1.11-24.38,5.19-37.6,8.61-46.42,4.53-11.67,9.96-20,18.71-28.75,8.75-8.75,17.08-14.17,28.75-18.71,8.81-3.44,22.05-7.5,46.42-8.62,23.06-1.04,32-1.36,78.59-1.41v.06h0Zm155.88,41.51c-16.56,0-30,13.42-30,29.99s13.44,30,30,30,30-13.44,30-30-13.44-30-30-30c0,0,0,.01,0,.01Zm-133.45,35.05c-70.9,0-128.39,57.48-128.39,128.38s57.49,128.36,128.39,128.36,128.37-57.46,128.37-128.36-57.47-128.38-128.37-128.38h0Zm0,45.05c46.02,0,83.34,37.31,83.34,83.33s-37.31,83.33-83.34,83.33-83.34-37.31-83.34-83.33,37.31-83.33,83.34-83.33Z"/>
</svg>