<?xml version="1.0" encoding="UTF-8"?>
<svg id="Layer_1" data-name="Layer 1" xmlns="http://www.w3.org/2000/svg" viewBox="0 0 1000 1000">
  <defs>
    <style>
      .cls-1 {
        fill: #fff;
      }

      .cls-2 {
        fill: #fffc00;
      }

      .cls-3 {
        fill: #131316;
      }
    </style>
  </defs>
  <circle class="cls-2" cx="500" cy="500" r="500"/>
  <g>
    <path class="cls-1" d="M499.27,763.63c-25.83,0-50.1-6.64-72.14-19.75-2.31-1.37-4.61-2.77-6.91-4.17-13.82-8.4-26.88-16.33-41.34-18.41-8.73-1.26-17.43-2.14-26.65-3.06-2.87-.29-5.73-.58-8.59-.88-3.17-.33-6.37-.58-9.76-.83-2-.15-4-.3-6-.47-15.1-1.29-25.27-11.74-25.9-26.63-.16-3.81-.26-6.11-8.91-8.65-12.21-3.59-24.02-8.12-35.45-12.5l-4.68-1.79c-4.1-1.56-11.61-5.27-15.94-12.53-4.74-7.95-3.81-19.68,2.11-26.71,3.91-4.64,8.89-6.95,12.19-8.47,.62-.29,1.25-.57,1.84-.88,40.32-20.85,67.55-47.46,83.25-81.34,2.43-5.23,4.17-11.19,6.04-17.87,.32-1.15,.27-1.67,.26-1.74h0s-.44-.66-1.97-1.66c-12.1-7.87-23.92-15.6-35.61-23.76-6.32-4.41-11.88-9.2-16.52-14.24-9.24-10.04-11.34-23.33-5.74-36.48,4.99-11.73,15.8-19.01,28.2-19.01,1.8,0,3.62,.15,5.43,.46,10.72,1.8,21.59,4.58,32.34,8.27-1.75-26.76-2.78-55.12,3.23-83.18,10.1-47.15,39.29-81.06,84.42-98.07,22.71-8.56,45.01-12.9,66.28-12.9,37.63,0,72.35,13.37,103.19,39.74,25.75,22.02,40.4,51.68,43.53,88.17,.74,8.59,1.17,17.02,1.59,25.18,.18,3.49,.36,6.91,.55,10.23l.05,.89-.05,.89c-.22,4.19-.44,8.27-.66,12.27-.31,5.77-.62,11.33-.89,16.82,6.33-2.31,12.88-4.69,19.72-6.66,5.23-1.51,10.29-2.28,15.05-2.28,14.11,0,25.38,6.67,30.92,18.29,3.8,7.97,9.94,28.48-15.18,46.75-7.84,5.7-15.92,11.03-23.74,16.18-5.11,3.36-10.39,6.84-15.44,10.33-3.13,2.16-4.56,3.42-5.2,4.07,.1,.92,.46,2.85,1.65,6.63,9.25,29.34,28.15,53.99,57.77,75.37,6.6,4.76,13.86,8.91,21.55,13.3,4.67,2.66,9.5,5.42,14.26,8.37,4.31,2.67,15.75,9.76,14.48,22.19-.97,9.56-8.66,17.9-15.76,21.2-10.41,4.84-21.07,8.88-31.38,12.8l-1.61,.61c-3.64,1.38-7.21,2.3-10.37,3.11-1.46,.38-2.84,.73-4.13,1.11-4.8,1.39-5.08,2.86-5.23,5.79-.82,16.44-11.65,27.46-28.25,28.76-2.77,.22-5.55,.43-8.32,.64-10.97,.84-22.32,1.71-33.33,2.89-14.25,1.52-28.32,6.98-44.3,17.16-14.6,9.31-37.21,22.06-64.76,25.34-6.49,.77-12.96,1.16-19.22,1.16Z"/>
    <path class="cls-3" d="M502.74,252.37c32.85,0,64.09,11.36,92.79,35.9,23.41,20.02,35.35,46.71,37.99,77.38,1.03,12,1.47,24.05,2.11,34.98h0c-.71,13.45-1.43,25.73-1.98,38.03-.38,8.46,.61,11.91,5.09,11.91,2.07,0,4.88-.74,8.65-2.05,8.93-3.12,17.75-6.63,26.82-9.25,3.85-1.11,7.4-1.65,10.61-1.65,7.87,0,13.65,3.24,16.48,9.18,4.45,9.32,1.49,18.45-10.15,26.92-12.63,9.19-25.98,17.39-38.84,26.27-12.79,8.82-14.47,13.63-9.72,28.68,11.18,35.44,34.12,62.2,63.66,83.53,11.58,8.36,24.56,14.74,36.74,22.29,2.86,1.77,7.21,4.87,7,6.97-.31,3.03-3.59,6.92-6.59,8.31-10.4,4.84-21.18,8.88-31.92,12.96-4.29,1.63-8.85,2.53-13.27,3.81-10.21,2.96-16.21,9.51-16.75,20.35-.44,8.71-5.02,12.94-13.51,13.61-14.04,1.1-28.1,2.07-42.1,3.57-18.74,2.01-35.44,9.54-51.2,19.58-17.84,11.37-36.57,20.39-58.05,22.94-5.85,.7-11.63,1.05-17.33,1.05-22.54,0-43.86-5.55-63.96-17.5-17.15-10.2-33.76-21.72-54.14-24.66-11.9-1.72-23.89-2.76-35.86-4.02-5.35-.56-10.72-.88-16.07-1.34-6.97-.59-10.99-4.63-11.28-11.36-.57-13.46-8.2-19.74-20.38-23.33-13.2-3.88-26.06-8.98-38.93-13.89-3-1.15-6.35-3.18-7.9-5.78-1.2-2.02-.9-6.44,.6-8.22,2.16-2.56,5.96-3.79,9.14-5.44,39.28-20.32,71.46-47.91,90.41-88.83,2.99-6.45,5.01-13.4,6.93-20.28,2.52-8.98-.51-15.99-8.39-21.12-11.82-7.68-23.62-15.4-35.18-23.47-5-3.49-9.79-7.49-13.91-11.96-5.12-5.56-5.76-12.39-2.79-19.37,2.63-6.19,7.75-9.27,13.48-9.27,.91,0,1.84,.08,2.78,.24,10.74,1.8,21.44,4.65,31.72,8.29,7.13,2.53,11.81,4.07,14.83,4.07,5.46,0,5.47-5.04,4.57-18.42-1.82-27.15-3-54.48,2.75-81.28,9.02-42.1,34.68-71.47,74.41-86.45,20.65-7.78,40.93-11.87,60.63-11.87m0-32v0c-23.21,0-47.41,4.69-71.93,13.93-24.89,9.38-45.64,23.54-61.65,42.08-16.13,18.66-27.15,41.41-32.76,67.61-4.73,22.06-5.41,43.9-4.72,64.99-4.2-.97-8.39-1.81-12.56-2.51-2.68-.45-5.39-.68-8.08-.68-18.93,0-35.38,11.01-42.92,28.74-8.05,18.91-4.8,38.94,8.69,53.59,5.42,5.89,11.86,11.45,19.13,16.52,9.37,6.54,18.77,12.78,28.3,19.01-.75,2.26-1.53,4.33-2.38,6.17-14.35,30.97-38.52,54.43-76.08,73.86-.19,.1-.77,.36-1.19,.56-4.03,1.86-11.53,5.32-17.74,12.7-10.2,12.11-11.74,31.55-3.6,45.21,6.8,11.41,17.94,16.98,23.98,19.29,1.56,.6,3.12,1.19,4.68,1.79,11.09,4.26,22.54,8.65,34.62,12.3,1.45,9.14,5.57,17.43,11.87,23.77,7.32,7.37,17.05,11.76,28.12,12.7,2.05,.17,4.1,.33,6.15,.49,3.27,.25,6.36,.48,9.31,.79,2.89,.3,5.78,.59,8.68,.89,9.03,.91,17.56,1.77,25.95,2.98,11.23,1.62,22.4,8.4,35.32,16.25,2.28,1.39,4.64,2.82,7.03,4.24,24.55,14.6,51.57,22,80.32,22,6.89,0,13.99-.43,21.11-1.27,30.81-3.66,55.55-17.58,71.48-27.73,13.82-8.81,25.71-13.5,37.4-14.75,10.77-1.15,21.49-1.97,32.85-2.84,2.78-.21,5.56-.43,8.35-.64,14.95-1.17,24.43-7.66,29.74-12.9,4.67-4.6,10.2-12.22,12.37-23.67,3.03-.79,6.56-1.78,10.28-3.19l1.6-.61c10.58-4.01,21.51-8.16,32.45-13.25,11.21-5.21,23.27-17.78,24.93-34.09,.67-6.61-.12-19.4-12.95-30.78-2.54-2.26-5.58-4.48-9.01-6.61-5.01-3.11-9.97-5.94-14.76-8.67-7.31-4.17-14.22-8.11-20.12-12.38-25.18-18.17-41.69-38.74-50.36-62.74,3.57-2.41,7.22-4.81,11.01-7.31,7.97-5.25,16.21-10.68,24.35-16.6,10.96-7.97,18.48-17.42,22.36-28.08,4.52-12.44,3.76-26.11-2.15-38.5-8.19-17.16-25.15-27.4-45.36-27.4-5.65,0-11.54,.8-17.54,2.37,.1-1.87,.2-3.76,.3-5.68l.09-1.78-.1-1.78c-.19-3.23-.36-6.56-.54-10.09-.43-8.3-.87-16.87-1.63-25.74-1.67-19.49-6.46-37.59-14.23-53.79-8.3-17.31-20.03-32.5-34.84-45.17-33.82-28.92-72.04-43.58-113.59-43.58h0Z"/>
  </g>
</svg>