<?xml version="1.0" encoding="UTF-8"?>
<svg id="Layer_1" data-name="Layer 1" xmlns="http://www.w3.org/2000/svg" viewBox="0 0 1000 1000">
  <defs>
    <style>
      .cls-1 {
        fill: #fff;
      }
    </style>
  </defs>
  <path class="cls-1" d="M685.86,0c3.22,125.64,86.83,224.16,210.34,247.39,11.78,2.22,23.95,2.55,35.96,3.33,4.59,.3,7.29,1.14,7.27,6.55-.17,50.85-.18,101.7-.28,152.55,0,.89-.62,1.78-1.29,3.57-92.73-.44-175.98-29.33-251.83-85.56,0,5.31,0,8.75,0,12.2,.33,113.76,.4,227.53,1.1,341.29,.39,62.48-13.03,121.27-47.8,173.5-67.42,101.29-162.79,150.63-284.43,144.7-134.35-6.55-247.5-98.54-283.32-227.13-44.81-160.88,51.03-331.32,212.02-377.54,41.27-11.85,83.07-15.71,125.71-11.2,3.53,.37,7.02,1.2,11.08,1.92v164.43c-3.01-.59-5.71-.98-8.34-1.64-97.17-24.65-188.93,48.88-185.77,148.88,2.34,74.02,61.79,135.03,137.8,141.41,72.36,6.08,141.84-46.58,155.18-118.21,2.31-12.4,2.99-25.26,3-37.91,.29-222.64,.35-445.28,.5-667.92,0-4.87,.46-9.74,.71-14.61,54.12,0,108.24,0,162.37,0Z"/>
</svg>